# Blender v2.75 (sub 0) OBJ File: ''
# www.blender.org
o Cube_Cube.001
v 0.000000 0.000000 1.000000
v 0.000000 1.000000 1.000000
v 0.000000 0.000000 0.000000
v 0.000000 1.000000 0.000000
v 1.000000 0.000000 1.000000
v 1.000000 1.000000 1.000000
v 1.000000 0.000000 0.000000
v 1.000000 1.000000 0.000000
v 0.000000 0.000000 1.000000
v 0.000000 0.000000 1.000000
v 0.000000 1.000000 1.000000
v 0.000000 1.000000 1.000000
v 0.000000 1.000000 0.000000
v 0.000000 1.000000 0.000000
v 0.000000 0.000000 0.000000
v 0.000000 0.000000 0.000000
v 1.000000 1.000000 0.000000
v 1.000000 1.000000 0.000000
v 1.000000 0.000000 0.000000
v 1.000000 0.000000 0.000000
v 1.000000 1.000000 1.000000
v 1.000000 1.000000 1.000000
v 1.000000 0.000000 1.000000
v 1.000000 0.000000 1.000000
vt 0.000000 1.000000
vt 0.000000 0.000000
vt 1.000000 1.000000
vt 1.000000 0.000000
vn -1.000000 0.000000 0.000000
vn 0.000000 0.000000 -1.000000
vn 1.000000 0.000000 0.000000
vn 0.000000 0.000000 1.000000
vn 0.000000 -1.000000 0.000000
vn 0.000000 1.000000 0.000000
s off
f 13/1/1 15/2/1 9/2/1
f 17/3/2 19/4/2 16/2/2
f 21/3/3 23/4/3 20/4/3
f 12/1/4 10/2/4 24/4/4
f 3/2/5 7/4/5 5/4/5
f 8/3/6 4/1/6 2/1/6
f 11/1/1 13/1/1 9/2/1
f 14/1/2 17/3/2 16/2/2
f 18/3/3 21/3/3 20/4/3
f 22/3/4 12/1/4 24/4/4
f 1/2/5 3/2/5 5/4/5
f 6/3/6 8/3/6 2/1/6
